<?xml version="1.0" standalone="no"?>
<!DOCTYPE svg PUBLIC "-//W3C//DTD SVG 20010904//EN"
 "http://www.w3.org/TR/2001/REC-SVG-20010904/DTD/svg10.dtd">
<svg version="1.0" xmlns="http://www.w3.org/2000/svg"
 width="1920.000000pt" height="1080.000000pt" viewBox="0 0 1920.000000 1080.000000"
 preserveAspectRatio="xMidYMid meet">

<g transform="translate(0.000000,1080.000000) scale(0.100000,-0.100000)"
fill="#000000" stroke="none">
<path d="M15277 9982 l-817 -817 595 -595 595 -595 179 180 c675 681 2601
2635 2601 2639 0 3 -525 6 -1168 6 l-1167 0 -818 -818z"/>
<path d="M18335 8168 c-473 -479 -977 -990 -1119 -1135 l-259 -264 1119 -1122
1119 -1122 3 1127 c1 621 1 1637 0 2258 l-3 1130 -860 -872z"/>
<path d="M0 2278 l0 -635 314 315 314 316 -258 266 c-142 146 -284 290 -314
320 l-56 54 0 -636z"/>
<path d="M781 730 l-723 -730 799 0 798 0 324 324 325 325 -381 388 c-209 213
-389 396 -400 405 -18 16 -46 -10 -742 -712z"/>
</g>
</svg>
